<svg width="17" height="16" viewBox="0 0 17 16" fill="none" xmlns="http://www.w3.org/2000/svg">
<path d="M10.3333 1H4.33333C3.97971 1 3.64057 1.14048 3.39052 1.39052C3.14048 1.64057 3 1.97971 3 2.33333V13C3 13.3536 3.14048 13.6928 3.39052 13.9428C3.64057 14.1929 3.97971 14.3333 4.33333 14.3333H12.3333C12.687 14.3333 13.0261 14.1929 13.2761 13.9428C13.5262 13.6928 13.6667 13.3536 13.6667 13V4.33333L10.3333 1Z" stroke="#D4D4D8" stroke-width="1.33333" stroke-linecap="round" stroke-linejoin="round"/>
<path d="M9.8335 1.3335V4.00016C9.8335 4.35378 9.97397 4.69292 10.224 4.94297C10.4741 5.19302 10.8132 5.3335 11.1668 5.3335H13.8335" stroke="#D4D4D8" stroke-width="1.33333" stroke-linecap="round" stroke-linejoin="round"/>
<path d="M8.5 12V8" stroke="#D4D4D8" stroke-width="1.33333" stroke-linecap="round" stroke-linejoin="round"/>
<path d="M6.5 10L8.5 12L10.5 10" stroke="#D4D4D8" stroke-width="1.33333" stroke-linecap="round" stroke-linejoin="round"/>
</svg>
