<svg width="17" height="17" viewBox="0 0 17 17" fill="none" xmlns="http://www.w3.org/2000/svg">
<path d="M8.50016 9.16683C8.86835 9.16683 9.16683 8.86835 9.16683 8.50016C9.16683 8.13197 8.86835 7.8335 8.50016 7.8335C8.13197 7.8335 7.8335 8.13197 7.8335 8.50016C7.8335 8.86835 8.13197 9.16683 8.50016 9.16683Z" stroke="#D4D4D8" stroke-width="1.33333" stroke-linecap="round" stroke-linejoin="round"/>
<path d="M13.1667 9.16683C13.5349 9.16683 13.8333 8.86835 13.8333 8.50016C13.8333 8.13197 13.5349 7.8335 13.1667 7.8335C12.7985 7.8335 12.5 8.13197 12.5 8.50016C12.5 8.86835 12.7985 9.16683 13.1667 9.16683Z" stroke="#D4D4D8" stroke-width="1.33333" stroke-linecap="round" stroke-linejoin="round"/>
<path d="M4.16667 8.83333C4.53486 8.83333 4.83333 8.53486 4.83333 8.16667C4.83333 7.79848 4.53486 7.5 4.16667 7.5C3.79848 7.5 3.5 7.79848 3.5 8.16667C3.5 8.53486 3.79848 8.83333 4.16667 8.83333Z" stroke="#D4D4D8" stroke-width="1.33333" stroke-linecap="round" stroke-linejoin="round"/>
</svg>
