<svg width="17" height="17" viewBox="0 0 17 17" fill="none" xmlns="http://www.w3.org/2000/svg">
<g clip-path="url(#clip0_38_2109)">
<path d="M7.15839 2H6.86505C6.51143 2 6.17229 2.14048 5.92224 2.39052C5.6722 2.64057 5.53172 2.97971 5.53172 3.33333V3.45333C5.53148 3.68715 5.46976 3.91679 5.35275 4.11922C5.23573 4.32166 5.06754 4.48976 4.86505 4.60667L4.57839 4.77333C4.37569 4.89036 4.14577 4.95197 3.91172 4.95197C3.67767 4.95197 3.44775 4.89036 3.24505 4.77333L3.14505 4.72C2.8391 4.54351 2.47561 4.49563 2.13439 4.58687C1.79316 4.67811 1.50209 4.90102 1.32505 5.20667L1.17839 5.46C1.0019 5.76596 0.954016 6.12944 1.04526 6.47067C1.1365 6.81189 1.35941 7.10297 1.66505 7.28L1.76505 7.34667C1.96657 7.46301 2.13413 7.63006 2.25109 7.83122C2.36804 8.03238 2.43032 8.26065 2.43172 8.49333V8.83333C2.43265 9.06828 2.37149 9.2993 2.25442 9.503C2.13734 9.70671 1.96853 9.87586 1.76505 9.99333L1.66505 10.0533C1.35941 10.2304 1.1365 10.5214 1.04526 10.8627C0.954016 11.2039 1.0019 11.5674 1.17839 11.8733L1.32505 12.1267C1.50209 12.4323 1.79316 12.6552 2.13439 12.7465C2.47561 12.8377 2.8391 12.7898 3.14505 12.6133L3.24505 12.56C3.44775 12.443 3.67767 12.3814 3.91172 12.3814C4.14577 12.3814 4.37569 12.443 4.57839 12.56L4.86505 12.7267C5.06754 12.8436 5.23573 13.0117 5.35275 13.2141C5.46976 13.4165 5.53148 13.6462 5.53172 13.88V14C5.53172 14.3536 5.6722 14.6928 5.92224 14.9428C6.17229 15.1929 6.51143 15.3333 6.86505 15.3333H7.15839C7.51201 15.3333 7.85115 15.1929 8.1012 14.9428C8.35124 14.6928 8.49172 14.3536 8.49172 14V13.88C8.49196 13.6462 8.55368 13.4165 8.67069 13.2141C8.78771 13.0117 8.9559 12.8436 9.15839 12.7267L9.44505 12.56C9.64775 12.443 9.87767 12.3814 10.1117 12.3814C10.3458 12.3814 10.5757 12.443 10.7784 12.56L10.8784 12.6133C11.1843 12.7898 11.5478 12.8377 11.8891 12.7465C12.2303 12.6552 12.5214 12.4323 12.6984 12.1267L12.8451 11.8667C13.0215 11.5607 13.0694 11.1972 12.9782 10.856C12.8869 10.5148 12.664 10.2237 12.3584 10.0467L12.2584 9.99333C12.0549 9.87586 11.8861 9.70671 11.769 9.503C11.652 9.2993 11.5908 9.06828 11.5917 8.83333V8.5C11.5908 8.26505 11.652 8.03403 11.769 7.83033C11.8861 7.62662 12.0549 7.45747 12.2584 7.34L12.3584 7.28C12.664 7.10297 12.8869 6.81189 12.9782 6.47067C13.0694 6.12944 13.0215 5.76596 12.8451 5.46L12.6984 5.20667C12.5214 4.90102 12.2303 4.67811 11.8891 4.58687C11.5478 4.49563 11.1843 4.54351 10.8784 4.72L10.7784 4.77333C10.5757 4.89036 10.3458 4.95197 10.1117 4.95197C9.87767 4.95197 9.64775 4.89036 9.44505 4.77333L9.15839 4.60667C8.9559 4.48976 8.78771 4.32166 8.67069 4.11922C8.55368 3.91679 8.49196 3.68715 8.49172 3.45333V3.33333C8.49172 2.97971 8.35124 2.64057 8.1012 2.39052C7.85115 2.14048 7.51201 2 7.15839 2Z" stroke="#D4D4D8" stroke-width="1.33333" stroke-linecap="round" stroke-linejoin="round"/>
<path d="M8.5 10.5C9.60457 10.5 10.5 9.60457 10.5 8.5C10.5 7.39543 9.60457 6.5 8.5 6.5C7.39543 6.5 6.5 7.39543 6.5 8.5C6.5 9.60457 7.39543 10.5 8.5 10.5Z" stroke="#D4D4D8" stroke-width="1.33333" stroke-linecap="round" stroke-linejoin="round"/>
</g>
<defs>
<clipPath id="clip0_38_2109">
<rect width="16" height="16" fill="white" transform="translate(0.5 0.5)"/>
</clipPath>
</defs>
</svg>
