<svg width="17" height="17" viewBox="0 0 17 17" fill="none" xmlns="http://www.w3.org/2000/svg">
<path d="M10.5 3.8335L14.7 8.0335C14.8492 8.18214 14.9675 8.35877 15.0483 8.55325C15.129 8.74774 15.1706 8.95625 15.1706 9.16683C15.1706 9.37741 15.129 9.58592 15.0483 9.78041C14.9675 9.97489 14.8492 10.1515 14.7 10.3002L11.8333 13.1668" stroke="#F4F4F5" stroke-width="1.33333" stroke-linecap="round" stroke-linejoin="round"/>
<path d="M7.05733 4.39067C6.80734 4.1406 6.46826 4.00008 6.11467 4H2.66667C2.48986 4 2.32029 4.07024 2.19526 4.19526C2.07024 4.32029 2 4.48986 2 4.66667V8.11467C2.00008 8.46826 2.1406 8.80734 2.39067 9.05733L6.19333 12.86C6.49634 13.1611 6.90616 13.3301 7.33333 13.3301C7.7605 13.3301 8.17032 13.1611 8.47333 12.86L10.86 10.4733C11.1611 10.1703 11.3301 9.7605 11.3301 9.33333C11.3301 8.90616 11.1611 8.49634 10.86 8.19333L7.05733 4.39067Z" stroke="#F4F4F5" stroke-width="1.33333" stroke-linecap="round" stroke-linejoin="round"/>
<path d="M4.83333 7.16667C5.01743 7.16667 5.16667 7.01743 5.16667 6.83333C5.16667 6.64924 5.01743 6.5 4.83333 6.5C4.64924 6.5 4.5 6.64924 4.5 6.83333C4.5 7.01743 4.64924 7.16667 4.83333 7.16667Z" fill="#F4F4F5" stroke="#F4F4F5" stroke-width="1.33333" stroke-linecap="round" stroke-linejoin="round"/>
</svg>
